<svg xmlns="http://www.w3.org/2000/svg" xmlns:xlink="http://www.w3.org/1999/xlink" width="280" height="280" fill="none" xmlns:v="https://vecta.io/nano"><style><![CDATA[.B{opacity:.2}.C{fill:#2b2c34}.D{fill:#323335}.E{fill:#010101}.F{fill:#0ec0de}.G{fill:#fff}.H{fill:#fecc96}.I{fill:#e77a25}.J{fill:#9f5e46}.K{fill:#583518}]]></style><ellipse cx="140.933" cy="268.8" rx="43.867" ry="7.467" fill="#ededed"/><path d="M128.471 67.324l.773 14.065.359 6.449c3.28 19.036 19.212-4.102 19.212-4.102l.667-18.686c-3.703-2.528-10.744-.747-16.462.864-2.671.763-4.549 1.41-4.549 1.41z" fill="#fdd9c1"/><path style="mix-blend-mode:darken" d="M146.022 76.927l-1.804 10.366-9.299 4.197 6.253-16.312 4.85 1.749z" fill="url(#A)"/><path d="M82.923 103.393c.074 2.692-3.306 5.829-6.66 4.616l-2.777-3.18c-.867-.912-1.682-1.643-2.148-1.712a20.77 20.77 0 0 1-2.618-.482 8.17 8.17 0 0 1-2.671-1.177 45.41 45.41 0 0 1-5.136-4.34l-5.231-5.389c-.645-.768-.529-1.505.026-1.759.058-.032.12-.055.185-.069l-.233-.196c-1.233-1.129-.503-1.908.264-2.12l.169-.042-.122-.117c-.502-.53-.857-1.362-.243-1.781.281-.132.587-.2.897-.2s.616.068.897.2c.469.159.925.354 1.365.583.095-.689 1.317-1.06 2.232-.53l7.58 4.489c1.058.821 1.804.933 5.036 3.233.085.048.169.116.27.18.058-.106.18-.281.328-.53.365-.599.841-1.563.587-2.47-.354-1.256-.407-2.56.46-3.529.571-.662 1.233-.625 1.587-.186.202.247.314.555.317.874.102 1.22.412 2.414.915 3.529.455 1.06 1.058 2.231.915 3.365s-1.195 3.863-.915 4.24c.111.143.455.504.915.965l3.809 3.535z" class="H"/><path style="mix-blend-mode:darken" d="M79.131 94.653c-.159 1.129-1.195 3.863-.915 4.24.111.143.455.504.915.965a8.26 8.26 0 0 0-2.973.53c-1.259.53-2.671 2.697-2.671 4.425-.867-.911-1.682-1.643-2.148-1.712-.882-.104-1.757-.265-2.618-.482 2.692-.403 5.819-2.697 5.348-3.651 1.989.117 3.354-1.701 3.819-3.439s0-3.651-.561-5.071a7.37 7.37 0 0 1-.344-3.577c.202.247.314.555.317.874.102 1.22.412 2.414.915 3.529.455 1.06 1.063 2.236.915 3.37z" fill="url(#B)"/><g class="J"><path d="M68.631 90.717a10.11 10.11 0 0 0-2.507.991h-.027-.026c-.709.402-1.346.917-1.888 1.526a6.22 6.22 0 0 0-1.111 1.781c-.004.025-.003.031 0 .037a1.12 1.12 0 0 0-.074.164 5.99 5.99 0 0 0-.339 2.22 4.4 4.4 0 0 1 0-2.284c.028-.099.062-.196.101-.291-.001-.015.002-.03.009-.044s.016-.026.028-.035a5.05 5.05 0 0 1 1.058-1.744s.032-.048.069-.069 0-.026.026-.037a6.72 6.72 0 0 1 1.878-1.399c.019-.014.041-.025.064-.032l.069-.037a8.38 8.38 0 0 1 2.671-.747zm1.793 6.268a9 9 0 0 0 1.677.742 6.14 6.14 0 0 1 1.687.843 2.16 2.16 0 0 1 .825 1.478c.041.527-.024 1.057-.19 1.558a8.3 8.3 0 0 0-.169-1.515c-.11-.502-.39-.95-.793-1.267a8.24 8.24 0 0 0-1.513-.864 5.69 5.69 0 0 1-1.523-.975z"/><path d="M74.328 93.069c0 .032-.026.048-.037.079l-.428.922a5.95 5.95 0 0 0-.338.943c-.096.32-.153.651-.169.986-.131-.324-.182-.675-.148-1.023a3.67 3.67 0 0 1 .243-1.012c.076-.186.169-.363.28-.53.085.048.169.117.27.18.058-.127.18-.302.328-.546zm-11.257 1.977c-.004.025-.003.031 0 .037l-.291-.191-1.915-1.325-2.343-1.722a18.4 18.4 0 0 0-2.354-1.675l-.45-.212c.058-.032.12-.055.185-.069l-.233-.196a3.67 3.67 0 0 1 .682.244 14.06 14.06 0 0 1 2.475 1.643l2.269 1.791 1.719 1.442.254.233zm1.138-1.861L63.913 93l-2.142-1.399-2.333-1.664-2.29-1.69c-.384-.268-.791-.502-1.217-.7l.169-.042-.122-.117a6.08 6.08 0 0 1 1.391.647l2.364 1.643 2.29 1.712 1.915 1.59c.095.053.185.132.27.207zm1.888-1.467h-.026l-.254-.175-2.29-1.558-2.613-1.934-2.571-1.955-.815-.53a9.57 9.57 0 0 1 1.365.583l2.317 1.653 2.571 1.966 2.116 1.749a1.83 1.83 0 0 1 .201.201z"/></g><path d="M80.707 100.171c-.227.058-7.405 4.738-8.077 5.411l3.734 4.133c3.962 1.516 8.384-3.042 8.151-5.167-1.677-1.706-3.274-3.895-3.808-4.377z" fill="url(#C)"/><path d="M118.987 115.353v.069l-.232.689c-.085.222-.307.439-.466.683a3.49 3.49 0 0 0-.206.292l-2.55 3.285-.291.339c-3.036 3.631-6.903 7.499-9.595 8.607-3.269 1.335-6.258 1.791-9.595.217a13.39 13.39 0 0 1-2.185-1.277c-4.269-2.994-12.594-11.261-20.73-19.608.212-.329 5.088-4.133 9.659-6.73 1.121 1.219 13.108 11.187 13.716 11.749.214.252.362.555.428.879 0 .09.058.175.085.276.169.609.376 1.261.841 1.537.112.077.241.127.376.143.783.111 1.016.079 1.248.403a4.09 4.09 0 0 1 .349.704c.037.085.074.175.122.271.045-.238.107-.471.185-.7.051-.154.126-.299.222-.429a2.86 2.86 0 0 1 .926-.737c.181-.116.385-.193.597-.228.291-.058.529-.084.926-.667l.302-.488c.745-1.245 3.597-5.925 6.051-10.599.058-.106.122-.212.169-.318l1.502-2.957c2.645-5.506 6.702-9.242 9.167-9.931a37.2 37.2 0 0 1 .529 5.432c.328 5.411.217 13.461-1.55 19.094z" class="F"/><path style="mix-blend-mode:multiply" d="M96.993 114.839c.169.609.376 1.261.841 1.537a14.34 14.34 0 0 0-.085 1.77c0 2.469-.661 5.464-1.672 5.262s-1.121-.848-1.058-1.78c.037-.732 1.058-4.611 1.904-7.065.005.091.042.175.069.276z" fill="url(#D)"/><path style="mix-blend-mode:multiply" d="M101.056 123.127c.047 2.311-.355 4.77-.661 4.017s-.916-7.912-.916-9.486v-.731c.139.223.256.459.349.705l.122.27a5.16 5.16 0 0 1 .185-.699 1.61 1.61 0 0 1 .222-.43c-.243 1.304.646 4.203.699 6.354z" fill="url(#E)"/><path style="mix-blend-mode:multiply" d="M105.271 126.079c-.111 1.012-.56-.446-1.523-2.788-.878-2.162-1.523-5.771-1.888-7.483.291-.058.529-.084.925-.667.73 2.787 2.571 10.021 2.486 10.938z" fill="url(#F)"/><g class="B"><use xlink:href="#e" style="mix-blend-mode:multiply" class="B C"/><use xlink:href="#e" style="mix-blend-mode:multiply" class="B D"/></g><g class="B"><use xlink:href="#f" style="mix-blend-mode:multiply" class="B C"/><use xlink:href="#f" style="mix-blend-mode:multiply" class="B D"/></g><g class="B"><use xlink:href="#g" style="mix-blend-mode:multiply" class="B C"/><use xlink:href="#g" style="mix-blend-mode:multiply" class="B D"/></g><g class="B"><use xlink:href="#h" style="mix-blend-mode:multiply" class="B C"/><use xlink:href="#h" style="mix-blend-mode:multiply" class="B D"/></g><g class="B"><use xlink:href="#i" style="mix-blend-mode:multiply" class="B C"/><use xlink:href="#i" style="mix-blend-mode:multiply" class="B D"/></g><g class="B"><use xlink:href="#j" style="mix-blend-mode:multiply" class="B C"/><use xlink:href="#j" style="mix-blend-mode:multiply" class="B D"/></g><g class="B"><use xlink:href="#k" style="mix-blend-mode:multiply" class="B C"/><use xlink:href="#k" style="mix-blend-mode:multiply" class="B D"/></g><path style="mix-blend-mode:darken" d="M79.786 114.045c-.535 0-.968-.347-.968-.774s.433-.774.968-.774.968.346.968.774-.433.774-.968.774z" fill="url(#G)"/><path style="mix-blend-mode:darken" d="M77.909 112.301c-.535 0-.968-.346-.968-.773s.433-.774.968-.774.968.346.968.774-.433.773-.968.773z" fill="url(#H)"/><path style="mix-blend-mode:darken" d="M76.369 110.664c-.535 0-.968-.347-.968-.774s.433-.774.968-.774.968.347.968.774-.433.774-.968.774z" fill="url(#I)"/><path d="M172.449 263.02l-.852 1.479-2.195.064 2.317-2.088.73.545z" fill="url(#J)"/><path d="M174.3 260.08a19.93 19.93 0 0 1-.084 2.597l-2.645 1.828-.085-1.383s-1.328 2.231-2.925 3.307-4.496 1.929-8.902 2.406-8.522-.048-9.204-2.189v-.08c-.369-.971-.369-2.044 0-3.015.439-.959 2.391-2.909 5.157-5.172s3.454-4.34 4.047-7.372c2.687-2.119 9.071-2.755 12.779-2.119.466 1.028 1.778 6.359 1.862 11.192z" fill="#501c0c"/><path opacity=".7" d="M161.267 264.155c-4.724 2.31-9.093 2.188-9.146-.726.46 1.256 3.761 2.31 9.146.726z" fill="url(#K)"/><path d="M159.881 250.821c-.238 1.802-.577 3.589-1.016 5.353-.254 1.176-3.607 4.213-4.475 5.103s-.91 2.841 1.529 2.878 4.115.244 7.009-2.311 4.115-7.09 4.316-10.169c-2.232-3.079-5.586-1.786-7.363-.854z" class="I"/><path style="mix-blend-mode:multiply" d="M174.3 260.08c.029.867 0 1.734-.084 2.597l-2.645 1.828-.085-1.383s-1.328 2.231-2.925 3.307-4.496 1.929-8.902 2.406-8.522-.048-9.204-2.189c1.782.98 4.559 1.59 7.976 1.32 4.877-.366 8.035-1.293 8.993-1.776s3.253-2.93 3.803-3.709c.455-.642 2.063-1.691 3.073-2.401z" fill="url(#L)"/><path d="M145.731 258.596a12.22 12.22 0 0 1-.28 3.18c-4.136.42-8.297.557-12.452.408a9.39 9.39 0 0 1-.232-1.669 49.8 49.8 0 0 0-5.248 1.404c-1.105.334-4.998 1.463-7.606 1.399s-8.172-.196-12.695-1.59c0 0 0-1.134.243-1.33-.006-.264.062-.526.197-.753s.33-.413.565-.534c.405-.262.843-.471 1.301-.621.719-.226 1.452-.403 2.195-.529a34.27 34.27 0 0 1 2.085-.281c2.454-.276 6.659-1.145 7.855-1.945s5.157-4.24 6.268-5.215a4.83 4.83 0 0 1 2.027-.984c.744-.163 1.515-.147 2.252.046l.19.032a33.11 33.11 0 0 0 11.637.037c1.116 2.501 1.667 6.169 1.698 8.945z" fill="#501c0c"/><path opacity=".7" d="M116.797 259.719c-4.088.35-6.961 0-8.574-.615a5.65 5.65 0 0 1 1.301-.62c2.364.713 4.807 1.128 7.273 1.235z" fill="url(#M)"/><path d="M132.846 250.52c-.92.768-6.66 5.537-8.834 6.597s-5.95 1.765-8.267 1.823c-1.841.053-3.174-.349-4.026-1.022a34.27 34.27 0 0 1 2.085-.281c2.454-.276 6.659-1.145 7.855-1.945s5.157-4.24 6.268-5.215a4.82 4.82 0 0 1 2.027-.983c.744-.164 1.515-.148 2.252.045l.19.032c.192.294.343.614.45.949z" class="I"/><path style="mix-blend-mode:multiply" d="M145.731 258.596a12.22 12.22 0 0 1-.28 3.179 90.83 90.83 0 0 1-12.452.408 9.39 9.39 0 0 1-.232-1.669 50.29 50.29 0 0 0-5.248 1.404c-1.105.334-4.998 1.463-7.606 1.399s-8.172-.196-12.695-1.589c0 0 0-1.134.243-1.33 2.196.922 9.135 1.69 12.42 1.589s8.617-1.706 10.511-2.416 5.818-.414 8.124-.472c2.047-.069 4.93-.217 7.215-.503z" fill="url(#N)"/><path d="M145.298 251.066c-.307.164-1.931.816-5.491.816-3.01 0-7.67-.986-10.495-1.919a15.04 15.04 0 0 1-1.332-.492c.904-3.652 1.671-12.422.454-18.426s-3.66-16.174-5.035-20.668a65.98 65.98 0 0 1-2.587-13.01c-.608-5.225-2.343-12.841-3.147-18.675-.645-4.658-1.561-10.848-1.693-16.254-.037-1.372-.026-2.692.058-3.932.736-1.107 2.296-2.517 4.232-3.916 5.327-3.816 13.594-7.53 15.969-4.679.264.316.504.65.72 1.001 2.644 4.24 3.332 12.305 3.136 19.025-.195 7.297-1.624 19.046-1.719 24.075s.497 7.372 2.439 13.524 3.549 19.608 3.755 23.1.307 14.516.736 20.43z" class="F"/><path style="mix-blend-mode:multiply" d="M145.298 251.065c-.307.164-1.931.816-5.491.816-3.01 0-7.67-.985-10.495-1.918 1.46-3.286 2-9.968 1.72-12.835-.318-3.037-.159-7.419-.931-11.187l-4.105-19.942c-.767-3.291-1.058-10.456-.915-13.614s-2.296-21.516-2.904-29.295c-.582 0 18.132.127 17.937 6.847-.196 7.297-1.624 19.046-1.719 24.075s.497 7.371 2.438 13.524 3.549 19.608 3.756 23.1.28 14.515.709 20.429z" fill="url(#O)"/><path d="M173.851 251.113c-1.683 1.547-7.438 2.305-12.304 1.224-.844-.177-1.672-.424-2.475-.737.296-2.686-1.534-12.898-2.899-17.488s-4.269-14.228-4.877-17.276-3.174-8.627-4.126-10.932-5.02-13.614-8.067-20.912-6.876-17.991-8.685-19.936a9.56 9.56 0 0 1-1.693-2.676c-.962-2.357-1.475-4.873-1.512-7.419 3.66-2.804 16.154-7.536 26.373.604 1.058 3.773 5.025 18.85 5.782 24.313s2.75 18.734 3.655 21.887 4.12 10.821 5.194 16.301 2.439 15.898 3.174 20.053 3.533 9.104 2.46 12.994z" class="F"/><path style="mix-blend-mode:multiply" d="M173.851 251.113c-1.683 1.547-7.438 2.305-12.304 1.224.942-1.674.529-2.082.111-3.179-.465-1.23-.756-1.347 0-3.408s-.148-3.18-1.222-6.089-3.173-16.28-4.57-20.297-1.671-10.826-3.354-16.046-9.145-55.925 1.058-47.785c1.058 3.773 5.025 18.85 5.782 24.314s2.75 18.733 3.655 21.886 4.121 10.822 5.194 16.301 2.439 15.898 3.174 20.053 3.549 9.136 2.476 13.026z" fill="url(#P)"/><path d="M135.559 90.594c-2.856-.254-11.192 2.989-12.308 8.744s-4.761 23.021 4.062 23.996 15.742-14.107 17.27-19.295-2.184-12.836-9.024-13.445z" fill="url(#Q)"/><path style="mix-blend-mode:multiply" d="M127.165 96.339c1.47-.853 5.332-1.987 6.146-2.231-.968 3.651-5.945 14.43-5.945 14.51-.529-2.469-.307-10.069-.201-10.858-4.115 6.28-1.375 13.492-1.222 13.492s9.754.323 9.907.286.709-2.798.529-4.769-.306-8.956-.254-9.847l2.116-1.378c1.258 1.118 2.399 2.361 3.407 3.71 1.878-1.214 1.423-5.469 1.37-5.591s-5.486-3-5.639-3l-4.761-.085-6.553 2.92 1.1 2.841z" fill="url(#R)"/><path d="M166.937 158.575a.74.74 0 0 1 0 .149v.932l-.254 8.601v1.468a3.54 3.54 0 0 1-.121.8c-.086.302-.201.595-.344.875l-2.158 3.821a6.29 6.29 0 0 1-.916.673 5.07 5.07 0 0 1-1.375.742c-.55.559-1.195 1.017-1.904 1.351-.277.117-.582.15-.878.095-1.058.779-1.904 1.325-2.412 1.41-.131.042-.274.032-.397-.03a.52.52 0 0 1-.264-.299c-.059-.149-.096-.306-.111-.466-.73.609-1.423.827-1.889.53l-.132-.106c-.45-.45-.317-1.314 1.989-3.932.206-.922.926-2.459 1.021-4.017.047-1.118-.529-2.364-.497-2.772-.215.193-.409.408-.577.642-.915 1.293-.841 2.798-2.534 3.529a2.26 2.26 0 0 1-1.613.106c-.28-.117-.402-.366-.159-.769a24.78 24.78 0 0 0 2.148-5.728c.365-1.76 3.777-6.01 4.596-6.932 0-.032.059-.058.085-.09l.122-.562c.09-.462.228-.913.412-1.346.129-.31.288-.606.476-.885.804-1.155 2-1.69 3.703-1.69.333-.002.664.034.989.106.861.186 1.63.667 2.176 1.359s.836 1.553.818 2.435z" class="H"/><path style="mix-blend-mode:darken" d="M166.937 158.575a.73.73 0 0 1 0 .148v.933l-.254 8.601v1.468a84.18 84.18 0 0 0-2.449-8.707c-2.082-.483-4.074-1.293-5.903-2.401a6.67 6.67 0 0 1 .413-1.346l5.183-2.469c.86.182 1.631.658 2.179 1.347s.843 1.545.831 2.426z" fill="url(#S)"/><path style="mix-blend-mode:darken" d="M166.556 170.53a4.76 4.76 0 0 1-.344.875l-2.158 3.821c-.284.251-.59.476-.915.673a5.07 5.07 0 0 1-1.375.742c-.55.559-1.195 1.017-1.904 1.351-.278.117-.583.15-.878.095-1.058.779-1.905 1.325-2.412 1.41a.53.53 0 0 1-.662-.329 1.73 1.73 0 0 1-.111-.466c-.719.594-1.386.816-1.851.53.941-.726 1.671-2.12 2.026-2.576a16.44 16.44 0 0 0 1.825-3.852 5.46 5.46 0 0 0 .211-.721c.413.254 1.741-.27 2.116-.472s2.074.408 2.978-.265 1.233 0 1.899-.53.873.085 1.555-.286z" fill="url(#T)"/><path d="M155.803 178.686c.016.158.055.313.116.461.656-.774 2.486-2.533 2.613-2.957.138-.53 1.058-3.037 1.407-4.24-.296.339-1.756 4.001-1.973 4.266l-2.163 2.47zm3.189-.599c.296.049.6.016.878-.095.511-.562.978-1.163 1.397-1.797a48.39 48.39 0 0 0 1.835-4.833c-.386.642-1.164 2.194-1.65 3.291s-.683 1.59-1.169 2.072l-1.291 1.362zm2.804-1.451a4.95 4.95 0 0 0 1.385-.737c.28-.266.517-.574.704-.912.095-.386.894-2.538 1.164-3.741-.386.848-1.286 3.429-1.666 3.821l-1.587 1.569zm-6.073-7.595c.164-.235.356-.448.572-.636.153-.567.417-2.12.417-2.12a25.19 25.19 0 0 0-.989 2.756z" class="J"/><path d="M158.553 155.714l-.529 2.649c.999.609 2.094 1.044 3.237 1.288a25.9 25.9 0 0 0 4.481.689c.835.063 1.675.026 2.502-.111l.481-1.76.402-1.59c-1.894-.683-7.934-2.119-9.289-2.151-.203-.005-.405.04-.587.132-.169.086-.318.206-.438.353s-.209.318-.26.501z" fill="url(#U)"/><path style="mix-blend-mode:multiply" d="M159.246 154.892l-.312.954a16.08 16.08 0 0 0 7.231 2.4c-.164.589-.36 1.76-.429 2.12a10.48 10.48 0 0 0 2.502-.111l.482-1.76.402-1.589c-1.894-.684-7.935-2.12-9.289-2.152-.204-.003-.406.044-.587.138z" fill="url(#V)"/><use xlink:href="#l" style="mix-blend-mode:multiply" class="B C"/><path d="M135.395 111.198l.048 6.984c-1.624 2.65-6.347 7.578-8.278 7.091s-4.062-4.706-2.55-11.187c1.429-5.103 5.549-16.428 6.607-18.119 1.148-.583 2.645-1.77 3.846-.026a4.26 4.26 0 0 1 .375.641l-.048 14.616z" class="I"/><path d="M161.145 116.747l-2.645 4.393-.291.467-2.115 3.121-.138.196-.402.583c-1.301 1.897-1.936 4.096-2.412 6.995 0 .122-.037.249-.064.377l-.47 3.502c-.614 4.971.814 12.226 3.56 23.975-1.163.673-2.434 1.137-3.756 1.372-3.523.779-8.209 1.06-11.023 1.097-4.073.091-14.996-1.012-16.313-3.598s1.729-30.736 2.438-37.18c1.523-1.929 10.971-18.018 13.436-22.56 1.777-3.286 5.654-9.889 8.241-13.694.989-1.447 1.782-2.491 2.205-2.787 1.466 1.818 12.902 6.105 15.536 7.562 1.835 2.931-3.75 22.549-5.787 26.179z" fill="#04afd6"/><g class="B"><use xlink:href="#m" style="mix-blend-mode:multiply" class="B C"/><use xlink:href="#m" style="mix-blend-mode:multiply" class="B D"/></g><g class="B"><use xlink:href="#n" style="mix-blend-mode:multiply" class="B C"/><use xlink:href="#n" style="mix-blend-mode:multiply" class="B D"/></g><g class="B"><use xlink:href="#o" style="mix-blend-mode:multiply" class="B C"/><use xlink:href="#o" style="mix-blend-mode:multiply" class="B D"/></g><path d="M127.519 122.057c.413 3.179 0 10.678 0 16.036s0 19.337-1.058 21.595c-1.221 2.506-7.378 2.936-11.949 2.294.693-2.596 1.365-9.671 1.852-16.528l.158-2.428c.281-4.239.476-8.171.529-10.598.196-6.805-.973-18.257-1.269-22.449s-.159-16.173 4.184-19.077c3.814-1.394 9.071-3.89 11.595-5.654-8.601 10.487-5.777 31.68-4.042 36.81z" fill="#04afd6"/><g class="F"><use xlink:href="#p"/><use xlink:href="#p" x="-0.333" y="8.288"/><use xlink:href="#p" x="-0.46" y="17.695"/></g><path d="M127.519 122.057c.424 3.126.344 6.279.344 9.417l-.042 9.417-.206 9.427-.307 4.706c-.138 1.569-.286 3.153-.862 4.664.476-1.527.476-3.111.566-4.674l.142-4.706.059-9.417.179-9.423.159-4.706a42.2 42.2 0 0 0-.032-4.705zm17.879 40.593a47.54 47.54 0 0 1-7.12.09 56.58 56.58 0 0 1-7.045-.885c-1.149-.22-2.281-.515-3.391-.885-.549-.189-1.08-.427-1.587-.71a.51.51 0 0 1-.122-.079c-.022.038-.05.072-.084.1a4.87 4.87 0 0 1-1.878 1.145c-1.016.358-2.074.588-3.147.684-2.159.214-4.336.172-6.485-.128a14.12 14.12 0 0 0 3.232.62c1.109.117 2.228.117 3.337 0 1.123-.1 2.223-.377 3.259-.821a5.94 5.94 0 0 0 1.364-.853 2.35 2.35 0 0 0 .45-.53 10.4 10.4 0 0 0 1.55.805c1.107.428 2.244.773 3.401 1.034a51.02 51.02 0 0 0 7.109 1.012 46.19 46.19 0 0 0 7.221-.196l3.544-.477a28.83 28.83 0 0 0 3.454-.816 50.23 50.23 0 0 1-7.062.89z" style="mix-blend-mode:multiply" class="B C"/><path d="M125.948 120.281l-.047 1.914c-2.978 0-5.888-.085-8.754-.186l.158-1.855 8.643.127z" class="F"/><path d="M139.003 93.779a24.13 24.13 0 0 1-3.56 2.803l-1-.223c-1.064-.197-2.14-.328-3.221-.392-.402-.768-1.095-2.39-1.121-3.317 1.026-1.134 2.248-2.226 4.808-2.12.789 0 1.569.166 2.29.487.915.488 1.402 1.341 1.804 2.761z" class="I"/><path style="mix-blend-mode:multiply" d="M139.003 93.779a24.13 24.13 0 0 1-3.56 2.803l-.048 14.616c-.804.334-1.475.382-1.856 0 .455-2.618.529-8.267.529-14.589l.365-.222c.219-.123.427-.263.624-.419 2.475-1.818 1.973-3.757 1.217-4.891h.915c.925.429 1.412 1.282 1.814 2.703z" fill="url(#W)"/><path d="M150.688 83.207c-.672 3.874-5.205 9.539-7.877 12.83l-1.523 1.887c-2.243-2.984-3.856-5.204-5.718-7.149-3.346 1.355-6.456 3.233-9.214 5.564.465-3.736 3.782-8.94 4.66-10.154.661-.877 1.434-1.663 2.301-2.337.238 2.344 1.011 4.601 2.258 6.598a30.75 30.75 0 0 0 10.156-6.889c1.175-1.194 2.184-2.542 2.999-4.006.429.615 1.333 2.629 1.958 3.657z" fill="url(#X)"/><path style="mix-blend-mode:multiply" d="M150.688 83.207c-.672 3.874-5.205 9.539-7.877 12.83.99-3.678 2.55-9.708 2.952-12.459 1.175-1.194 2.184-2.542 2.999-4.006.397.594 1.301 2.607 1.926 3.635z" fill="url(#Y)"/><use xlink:href="#q" fill="url(#Z)"/><path d="M149.101 98.586l-6.348 1.341 3.359 2.978c-2.28 2.491-14.022 14.16-18.593 19.152 1.524-3.71 8.839-16.72 11.278-20.853 1.814-3.095 6.305-11.129 8.585-16.868.666-1.521 1.125-3.125 1.364-4.769.804 1.139 1.635 2.236 2.645 3.445a61.88 61.88 0 0 1-2.29 15.575z" class="F"/><use xlink:href="#l" style="mix-blend-mode:multiply" class="B C"/><path d="M176.839 127.732a3.68 3.68 0 0 1-.148.382l-.169.381c-.529 1.092-.709 1.59-.439 2.687.254 1.213.076 2.477-.503 3.572-.529.89-3.861 19.041-4.57 21.802-.719.604-1.962.917-3.417 1.023-3.787.291-8.992-.827-9.802-1.993 1.222-6.81 2.55-12.719 2.645-15.077.09-2.082.905-6.635 1.513-7.997a1.42 1.42 0 0 1 .111-.233c.029-.047.067-.089.111-.122l.058-.058c.476-.429.27-.869 0-1.415-.013-.048-.033-.094-.058-.138l-.074-.137a10.88 10.88 0 0 1-.169-.329c-.159-.339-.233-.625.122-.917a1.48 1.48 0 0 1 .216-.153c.529-.303.27-.689-.074-1.06-.142-.149-.317-.292-.46-.419l-.174-.159a2.51 2.51 0 0 1-.461-.774c-.311-.66-.434-1.394-.354-2.119.206-.976-2.343-8.114-2.745-9.163-.757-5.893 1.819-15.289 6.072-21.389.83-1.216 1.791-2.335 2.867-3.339 1.635.731 3.867 5.352 4.57 10.302s2.55 11.659 3.052 14.669 1.122 5.426 1.122 6.73a7.62 7.62 0 0 0 .703 3.238c.466 1.144.831 1.224.455 2.204z" class="F"/><path style="mix-blend-mode:multiply" d="M162.192 127.961c-.142-.149-.317-.292-.46-.419l-.174-.159a2.51 2.51 0 0 1-.461-.774 21.23 21.23 0 0 0 9.326 2.12c-.413.53-5.607.7-8.373.424.067-.057.14-.109.216-.154.503-.302.27-.689-.074-1.038z" fill="url(#a)"/><path style="mix-blend-mode:multiply" d="M170.497 136.651c-1.783.949-6.802 1.023-8.532-4.123a1.42 1.42 0 0 1 .111-.233c1.349 1.383 2.994 3.339 8.421 4.356z" fill="url(#b)"/><path style="mix-blend-mode:multiply" d="M170.751 132.121c.148.858-3.962 1.139-5.226.933-1.125-.218-2.227-.536-3.296-.949.476-.429.27-.869 0-1.415-.013-.048-.033-.094-.058-.138l-.074-.138-.169-.328c1.541.506 3.141.813 4.76.911 1.82.075 3.904.281 4.063 1.124z" fill="url(#c)"/><g class="B"><use xlink:href="#r" style="mix-blend-mode:multiply" class="B C"/><use xlink:href="#r" style="mix-blend-mode:multiply" class="B D"/></g><g class="B"><use xlink:href="#s" style="mix-blend-mode:multiply" class="B C"/><use xlink:href="#s" style="mix-blend-mode:multiply" class="B D"/></g><g class="B"><use xlink:href="#t" style="mix-blend-mode:multiply" class="B C"/><use xlink:href="#t" style="mix-blend-mode:multiply" class="B D"/></g><g class="B"><use xlink:href="#u" style="mix-blend-mode:multiply" class="B C"/><use xlink:href="#u" style="mix-blend-mode:multiply" class="B D"/></g><use xlink:href="#q" class="F"/><path d="M123.267 111.951c-1.009-3.438-1.586-6.987-1.72-10.567l3.174-1.537.175-.085.359-.17-.322-.212s-.101-.132-.159-.106l-2.872-1.903c1.661-2.544 3.285-5.109 5.057-7.605.883-1.251 1.793-2.491 2.787-3.683a18.97 18.97 0 0 1 3.396-3.333 19.43 19.43 0 0 0-3.581 3.233c-1.041 1.159-2.023 2.371-2.941 3.63a140.23 140.23 0 0 0-2.682 3.752l-2.528 3.8-.206.313.343.233 2.698 1.818-3.02 1.447-.307.148v.27c.154 3.615.785 7.193 1.878 10.641 1.081 3.545 2.661 6.918 4.692 10.016-1.827-3.175-3.245-6.569-4.221-10.1z" style="mix-blend-mode:multiply" class="B C"/><path d="M91.963 50.955h.698l.439 1.017 11.96-6.068 2.824.36-14.361 7.239L93 55.178l-1.106-.09.069-4.134z" class="E"/><path d="M129 67.785l.762 12.819c9.257-2.003 17.001-14.022 17.001-14.022l-13.277-.08c-2.661.694-4.486 1.282-4.486 1.282z" fill="#f58a69"/><path d="M98.051 33.509v.827.562l.074 1.802c.169 3.349-1.121 17.059-.82 22.443.423 7.562 1.026 11.659 1.735 12.623 6.157 8.352 11.553 13.943 20.799 12.167 11.134-2.12 26.204-14.552 32.467-18.463 1.904-1.187 3.11-2.432 3.348-3.71.613-3.857.953-7.753 1.016-11.659.439-13.651-.608-30.678-.608-30.678-13.377-15.787-50.664-9.629-56.339 1.918-1.296 2.602-1.751 6.99-1.672 12.167z" class="H"/><path d="M136.85 24.59s-.613 12.189 3.269 16.428c4.459 4.902-1.01 22.655-1.01 22.655l9.754-8.309.767 12.968s38.217-27.509 8.331-51.51c-11.505 1.134-21.111 7.769-21.111 7.769z" class="E"/><path d="M120.119 72.666c-2.084 2.438-5.617 3.349-9.135 2.284-.95-.288-1.823-.79-2.549-1.468a20.43 20.43 0 0 1-2.164-3.084l-.264-.604c-.307-.752-.63-1.706-1.333-2.316 1.54.081 3.084.065 4.623-.048a69.08 69.08 0 0 0 10.579-1.012l1.513-.196c.753-.078 1.495-.243 2.211-.493-.947 2.406-1.666 4.812-3.481 6.937z" fill="#8b181b" style="mix-blend-mode:multiply"/><path d="M114.571 70.732c-1.116.001-2.231.072-3.338.212-.639.074-1.272.194-1.894.36a4.17 4.17 0 0 0-1.804 1.06c.279.396.579.777.9 1.139.726.678 1.599 1.18 2.549 1.468 3.518 1.06 7.051.154 9.135-2.284.217-.254.42-.52.609-.795-1.196-1.203-4.735-1.171-6.157-1.161z" fill="#f3785b"/><path d="M119.596 72.826a21.56 21.56 0 0 1-7.728.567 19.96 19.96 0 0 1-3.703-.737c-.103.028-.197.081-.275.154l.529.673c.727.678 1.599 1.18 2.549 1.468 3.364 1.017 6.75.223 8.855-1.987a.31.31 0 0 1-.227-.138z" class="G"/><path d="M119.596 72.825l-1.058.233c-1.18 2.279-4.941 2.459-7.808 1.802.077.035.157.066.238.09 3.364 1.017 6.75.222 8.855-1.987a.31.31 0 0 1-.227-.138z" fill="#b8a997" style="mix-blend-mode:multiply" opacity=".6"/><path d="M122.552 66.614l.371-.673c-.487.122-1 .196-1.55.281l-1.513.196c-3.495.609-7.032.947-10.579 1.012-.365 0-2.253.164-3.946.09.658.681 1.406 1.269 2.222 1.749a22.96 22.96 0 0 0 6.247.456 19.46 19.46 0 0 0 8.32-2.485c.153-.201.296-.41.428-.625z" class="G"/><path d="M121.373 66.222l-1.513.196c-3.495.609-7.032.947-10.579 1.012-.365 0-2.253.164-3.946.09.289.29.591.565.904.827.013-.055.04-.105.079-.146a.3.3 0 0 1 .144-.082c1.147-.189 2.307-.283 3.47-.281 1.586-.106 3.12-.297 4.681-.477a38.89 38.89 0 0 0 4.152-.567 10.3 10.3 0 0 1 2.751-.36c.076 0 .149.03.204.084s.085.126.087.203c.013.228.013.456 0 .684l.306-.164c.157-.201.304-.41.439-.625s.254-.445.371-.673c-.487.122-1 .196-1.55.281z" fill="#b8a997" style="mix-blend-mode:multiply" opacity=".6"/><g class="K"><path d="M98.39 38.697c.437-.398.933-.725 1.471-.97.503-.223 2.005-.143 3.655.138l.873.254a18.41 18.41 0 0 1 3.264 1.245l1.222.694a10.65 10.65 0 0 1-.127 1.245l.053-.058c.097-.142.207-.275.328-.398a2.92 2.92 0 0 1-.238.88c-.228.179-.475.334-.736.461-2.116-1.383-4.491-2.565-7.13-2.395-1.55.101-2.745.35-3.877 1.229-.032-.037-.074-.069-.106-.106.079-.747.809-1.606 1.349-2.22z"/><path d="M97.046 40.86c2.227-1.791 4.978-2.406 7.548-1.42a30.95 30.95 0 0 1 3.703 1.993.92.92 0 0 0 .704.085c0 .074-.059.143-.09.212-.229.178-.475.333-.736.461-2.115-1.383-4.49-2.565-7.13-2.395-1.55.101-2.745.35-3.877 1.229-.032-.037-.069-.069-.106-.106s-.016-.016-.016-.058z" style="mix-blend-mode:multiply"/></g><path d="M123.06 53.233c.164 3.37 1.841 6.015 3.751 5.909s3.316-2.925 3.173-6.296-1.841-6.015-3.75-5.904-3.338 2.92-3.174 6.29z" class="G"/><path d="M124.129 54.479c.106 2.252 1.29 4.017 2.645 3.937s2.359-1.961 2.253-4.213-1.296-4.012-2.645-3.937-2.364 1.961-2.253 4.213z" class="E"/><path d="M126.456 52.396c.032.7.423 1.251.873 1.224s.783-.615.751-1.314-.428-1.256-.878-1.23-.783.615-.746 1.32zm-.714 1.649c.053.429.317.747.592.715s.45-.403.392-.827-.317-.747-.587-.715-.45.403-.397.827z" class="G"/><g class="K"><path d="M133.449 39.672a8.12 8.12 0 0 0-2-1.32c-.687-.323-2.856-.413-5.257-.281l-1.275.191a30.49 30.49 0 0 0-4.829 1.06l-1.841.668.037 1.479-.069-.074a3.43 3.43 0 0 0-.428-.53 3 3 0 0 0 .238 1.06 5.72 5.72 0 0 0 1.005.631c3.226-1.362 6.744-2.47 10.505-1.95 2.211.307 3.903.747 5.416 1.918.053-.042.111-.074.164-.111-.026-.858-.963-1.961-1.666-2.74z"/><path d="M135.11 42.375c-1.468-1.204-3.187-2.061-5.03-2.508s-3.764-.472-5.618-.073c-1.941.429-3.666 1.245-5.522 1.897-.33.111-.687.111-1.016 0a2.3 2.3 0 0 0 .106.265 5.69 5.69 0 0 0 1 .625c3.226-1.362 6.744-2.469 10.505-1.95 2.211.307 3.903.747 5.416 1.918.053-.042.111-.074.164-.111a.34.34 0 0 0-.005-.064z" style="mix-blend-mode:multiply"/></g><path d="M108.165 52.391c.106 3.371-1.354 6.126-3.264 6.158s-3.544-2.65-3.65-6.041 1.349-6.131 3.259-6.163 3.544 2.676 3.655 6.047z" class="G"/><path d="M107.202 53.71c.069 2.252-.968 4.096-2.322 4.118s-2.512-1.786-2.587-4.038.968-4.096 2.323-4.118 2.512 1.786 2.586 4.038z" class="E"/><path d="M104.711 51.802c0 .7-.323 1.277-.772 1.282s-.831-.556-.852-1.256.323-1.282.772-1.288.809.556.852 1.261zm.846 1.591c0 .429-.259.768-.529.758s-.481-.371-.46-.8.259-.768.529-.753.476.366.46.795z" class="G"/><g class="E"><path d="M136.496 24.018s-2.613-1.865-11.822-.806-17.752 8.967-26.66 3.259C94.063 12.651 108.535 5.306 116.147 2.82c11.404-3.71 32.869-7.308 41.787 14.001-6.458.943-21.438 7.197-21.438 7.197z"/><path d="M163.785 22.205s12.647-9.21 5.448-16.592-13.753-.143-14.843 3.54 2.587 10.784 9.395 13.052z"/></g><path d="M170.91 10.117a6.89 6.89 0 0 1 .201.721 8.24 8.24 0 0 1 .116.843 7.37 7.37 0 0 1 0 1.092c-.017.428-.057.854-.122 1.277a10.72 10.72 0 0 1-.359 1.378c-.162.477-.363.94-.603 1.383a6.84 6.84 0 0 1-.931 1.235c-.352.375-.746.708-1.175.991a6.68 6.68 0 0 1-1.375.604l-.693.196a6.46 6.46 0 0 1-.698.09l-.656.074h-.635c-.402-.026-.772 0-1.1-.064l-.846-.148-.736-.127-.216 1.171.809.09.931.095c.354.037.772 0 1.211 0l.693-.027.735-.132a6.59 6.59 0 0 0 .762-.154l.772-.276a7.29 7.29 0 0 0 1.487-.784 7.34 7.34 0 0 0 2.115-2.575 9.47 9.47 0 0 0 .529-1.5 9.74 9.74 0 0 0 .265-1.447 11.39 11.39 0 0 0 .032-1.319c-.018-.658-.11-1.313-.275-1.95-.063-.251-.143-.497-.238-.737zm-3.153-7.265l-.809-.435c-.254-.138-.587-.27-.958-.44s-.814-.307-1.29-.477a11.66 11.66 0 0 0-1.587-.355 8.92 8.92 0 0 0-1.825-.101l-.963.106-.968.233a8.18 8.18 0 0 0-1.793.88c-.285.173-.551.375-.793.604a4.8 4.8 0 0 0-.715.673 9.19 9.19 0 0 0-1.158 1.489 9.69 9.69 0 0 0-.867 1.521 10.52 10.52 0 0 0-.63 1.431l-.449 1.235-.281.97-.248.848 1.232.281.185-.827.212-.949c.084-.366.227-.763.354-1.203a14.71 14.71 0 0 1 1.233-2.872c.281-.518.614-1.007.994-1.457.184-.239.391-.459.619-.657a3.92 3.92 0 0 1 .682-.604 7.43 7.43 0 0 1 1.587-.912l.883-.27c.297-.069.604-.095.9-.148a8.41 8.41 0 0 1 1.751 0c.534.049 1.064.135 1.586.26l1.296.397.979.387.841.392z" fill="#262014"/><path d="M113.587 57.859s-2.307 3.116-1.957 4.844 2.962 3.604 2.962 3.604-7.808-.657-1.005-8.447z" class="K"/><path d="M163.911 1.899c-.218-.048-.438-.081-.661-.101a6.41 6.41 0 0 0-.777 0c-.333.022-.663.066-.989.132a15.44 15.44 0 0 0-4.904 1.993l-1.185.806a12.73 12.73 0 0 0-1.058.869c-.349.286-.64.609-.936.901s-.529.609-.767.88-.402.567-.576.806c-.147.21-.28.429-.397.657l-.323.588 1.164.488.243-.53c.087-.212.19-.418.307-.615.143-.233.27-.53.465-.779l.635-.874.804-.911a12.26 12.26 0 0 1 .952-.911c.328-.307.709-.572 1.058-.858a14.73 14.73 0 0 1 4.581-2.3 6.35 6.35 0 0 1 .952-.207c.25-.04.503-.064.757-.069a6.5 6.5 0 0 1 .655.037z" fill="#262014"/><path d="M98.046 68.586c.841-8.919 15.34-2.915 15.34-2.915s7.199-2.878 11.293-.848 5.353 4.648 5.289 7.419 14.282-9.391 12.949-23.222 2.185 3.18 2.185 3.18 1.248 13.434 5.57 12.947c2.703-.302-3.661 13.476-7.935 21.049 0 0 1.439-5.464 0-6.942-2.205 11.987-19.185 27.08-19.185 27.08s-12.917-11.129-15.297-14.77a35.29 35.29 0 0 1-2.386-4.563c.286 1.23.81 3.964-.164 2.787-3.253-3.874-8.13-16.211-7.659-21.203zm11.494 9.057c2.343.18 2.46-2.199 2.46-2.199a20.58 20.58 0 0 1 2.713.101c.556.133 1.587 2.512 4.936 2.337s5.384-7.7 1.258-7.541-7.431-2.316-7.431-2.316c-4.391 2.65-7.607.488-8.866 3.074s2.587 6.37 4.93 6.545z" class="E"/><g fill="#56473f"><path d="M167.212 7.622l-.074.53-.19.53-.365.662c-.338.537-.716 1.048-1.132 1.526a24.65 24.65 0 0 1-1.502 1.59l-1.64 1.489-1.54 1.192a10.5 10.5 0 0 1-1.184.721l-.498.212s.196 0 .529-.079a7.71 7.71 0 0 0 1.376-.488 11.45 11.45 0 0 0 1.745-1.06 16.2 16.2 0 0 0 1.767-1.478 13.43 13.43 0 0 0 1.492-1.738 8.11 8.11 0 0 0 .978-1.733 6.35 6.35 0 0 0 .233-.763c0-.238.047-.445.063-.62l-.058-.493zm-2.967.296s-.154 0-.418.037c-.163.021-.323.062-.476.122a2.51 2.51 0 0 0-.593.254 3.4 3.4 0 0 0-.629.397c-.228.156-.44.334-.635.53-.431.396-.827.829-1.185 1.293a13.78 13.78 0 0 0-1.634 2.756 10.01 10.01 0 0 0-.487 1.367l.889-1.155 1.872-2.522 1.058-1.282a8.68 8.68 0 0 1 1.021-1.017c.143-.128.295-.245.455-.35.118-.097.25-.175.391-.233l.371-.196zm1.253-2.385c-.662-.157-1.354-.145-2.01.037a7.63 7.63 0 0 0-1.925.715 8.27 8.27 0 0 0-.984.594c-.328.212-.619.482-.931.726a4.22 4.22 0 0 0-.804.848 6.27 6.27 0 0 0-.672.906 7.58 7.58 0 0 0-.502.917 8.75 8.75 0 0 0-.323.874c-.126.442-.204.897-.233 1.357v.53l.17-.488a9.14 9.14 0 0 1 .502-1.235 11.25 11.25 0 0 1 .989-1.59 8.51 8.51 0 0 1 .672-.806c.228-.276.529-.53.772-.768 1.011-.918 2.172-1.655 3.433-2.178a6.72 6.72 0 0 1 1.317-.387l.529-.053zm-4.104-.466h-.498a5.56 5.56 0 0 0-1.274.36c-1.216.517-2.301 1.301-3.174 2.295a7.98 7.98 0 0 0-1.164 1.717 4.94 4.94 0 0 0-.354.885c-.087.269-.154.543-.201.821-.046.236-.067.475-.064.715a2.61 2.61 0 0 0 0 .53l.059.472.047-.472c.002-.179.025-.357.069-.53.053-.201.074-.434.159-.673.071-.26.163-.513.275-.758.117-.277.253-.546.407-.806a7.34 7.34 0 0 1 .529-.816c.193-.274.403-.536.629-.784a11.73 11.73 0 0 1 1.45-1.378c.264-.185.497-.397.751-.53.229-.16.468-.307.714-.44a7.16 7.16 0 0 1 1.158-.53l.482-.079zm6.024 6.095l-.174.392-.243.403-.376.493a22.19 22.19 0 0 1-2.317 2.406 27.69 27.69 0 0 1-2.618 2.12 8.78 8.78 0 0 1-.952.609l-.397.185s.159 0 .45-.048a6.64 6.64 0 0 0 1.142-.35c.509-.221.996-.489 1.455-.8a12.47 12.47 0 0 0 1.486-1.155 12.21 12.21 0 0 0 1.27-1.362 7.77 7.77 0 0 0 .883-1.362 4.53 4.53 0 0 0 .376-1.06l.015-.472zm1.952-1.654a8.43 8.43 0 0 1-.153 1.277 10.11 10.11 0 0 1-.307 1.261 8.77 8.77 0 0 1-.561 1.367c-.216.446-.475.87-.772 1.266-.132.196-.296.36-.428.53a4.57 4.57 0 0 1-.423.456l-.376.376-.312.275-.27.249.328-.17a4.91 4.91 0 0 0 .836-.53 4.37 4.37 0 0 0 .502-.413c.19-.163.367-.34.529-.53a6.1 6.1 0 0 0 .471-.615 7.15 7.15 0 0 0 .402-.694 6.47 6.47 0 0 0 .688-2.819 4.55 4.55 0 0 0-.154-1.288zM98.051 20.87s9.58-15.13 29.622-18.119c-16.213.906-24.56 8.537-29.622 18.119zm5.845-1.378s3.703-5.098 11.764-8.198c-3.586-.504-8.103 1.558-11.764 8.198zm13.023-10.137a55.93 55.93 0 0 1 27.59-3.482c-5.458-2.851-19.068-2.411-27.59 3.482zm25.358-6.387s-6.58-2.464-11.563-1.743c3.38.647 11.563 1.743 11.563 1.743zM108.17 22.153s11.531-3.747 20.37-8.203a158.13 158.13 0 0 0-20.37 8.204zm-.968-1.993s13.182-8.405 20.212-8.935c-9.448.265-14.922 4.451-20.212 8.935zm39.841-10.806a80.81 80.81 0 0 0-25.194.53c5.141-2.369 16.191-3.264 25.194-.53zm-3.285 2.041c-8.29 1.41-16.305 4.123-23.75 8.039 4.105-3.794 14.282-7.939 23.75-8.039zm-3.65 8.765s6.046-.53 13.097-4.77c-3.575.482-13.097 4.77-13.097 4.77zm2.931-4.616s4.597.191 10.579-3.18c-2.745.037-10.579 3.18-10.579 3.18zm18.402 6.279l.244.625a14.57 14.57 0 0 1 .486 1.664 26.3 26.3 0 0 1 .624 5.177c.048.949.027 1.902 0 2.798l-.111 2.454-.116 1.743c-.048.419-.037.668-.037.668a21.23 21.23 0 0 0 1.058-4.822 23.06 23.06 0 0 0 .1-2.867c-.039-1.811-.384-3.603-1.021-5.299a10.89 10.89 0 0 0-.814-1.59l-.413-.551zm2.999 11.612a7.36 7.36 0 0 0 .043.668 13.85 13.85 0 0 1-.048 1.728 26.53 26.53 0 0 1-1.005 5.124l-.857 2.676-.862 2.311-.651 1.637c-.174.387-.243.625-.243.625.489-.661.939-1.349 1.349-2.062a23.5 23.5 0 0 0 2.116-4.971c.53-1.729.762-3.535.687-5.342a9.68 9.68 0 0 0-.28-1.759l-.249-.636zm1.836 4.685v.668a13.4 13.4 0 0 1-.222 1.717 26.85 26.85 0 0 1-1.492 5.013l-1.116 2.586-1.084 2.231-.81 1.59-.301.604c.551-.617 1.066-1.265 1.544-1.94a23.22 23.22 0 0 0 1.344-2.146 23.75 23.75 0 0 0 1.243-2.613 16.06 16.06 0 0 0 1.174-5.262 9.95 9.95 0 0 0-.111-1.775l-.169-.673zm-5.443 11.653l-.228.631a14.99 14.99 0 0 1-.74 1.59c-.849 1.552-1.846 3.018-2.978 4.377l-1.867 2.167-1.725 1.828-1.253 1.277c-.318.297-.476.493-.476.493a23.54 23.54 0 0 0 4.02-3.1 24.37 24.37 0 0 0 1.994-2.157 16.4 16.4 0 0 0 2.745-4.7c.2-.561.349-1.139.444-1.728l.064-.678zm-2.354-28.787l.265.498c.216.435.407.883.571 1.341a24.09 24.09 0 0 1 1.084 4.24l.333 2.316.212 2.046.132 1.463.058.53a16.58 16.58 0 0 0 .313-2.019 17.99 17.99 0 0 0-.186-4.494 13.1 13.1 0 0 0-1.491-4.293c-.257-.437-.553-.851-.884-1.235l-.407-.392zm1.762 14.405l.089.345c.072.299.129.601.17.906a19.69 19.69 0 0 1 .185 2.819l-.032 1.526-.063 1.346-.059.959c-.015.228 0 .371 0 .371.13-.427.238-.86.323-1.298a15.61 15.61 0 0 0 .286-2.941 10.29 10.29 0 0 0-.381-2.883 5.48 5.48 0 0 0-.333-.858l-.185-.291zm-6.189-11.373l.121.466.339 1.203a35.17 35.17 0 0 1 .793 3.646l.64 3.71.265 1.224c.058.297.122.466.122.466s.089-.694.116-1.733a21.17 21.17 0 0 0-.275-3.805 12.87 12.87 0 0 0-1.19-3.672c-.273-.524-.584-1.027-.931-1.505zm3.152-2.645s.027.106.09.291l.254.742.73 2.194.778 2.215c.248.625.476.996.476.996.022-.365.022-.732 0-1.097-.051-.8-.196-1.592-.434-2.358a6.99 6.99 0 0 0-1.121-2.173 5.83 5.83 0 0 0-.773-.811z"/><path d="M151.465 33.557l-.217-.53c-.143-.334-.296-.795-.481-1.367a40.44 40.44 0 0 1-1.09-4.282l-.83-4.451-.275-1.5-.117-.572s-.1.858-.111 2.157a24.77 24.77 0 0 0 .492 4.711 15.71 15.71 0 0 0 1.502 4.303 7.8 7.8 0 0 0 .783 1.155l.344.376zm-3.142 2.755l-.159-.413c-.105-.26-.222-.631-.359-1.06-.275-.89-.577-2.093-.836-3.323l-.703-3.429-.254-1.155c-.053-.281-.111-.445-.111-.445-.078.559-.124 1.121-.138 1.685a16.72 16.72 0 0 0 .365 3.672 11.09 11.09 0 0 0 1.248 3.344c.246.429.567.809.947 1.124zm-3.322.918l-.137-.62c-.095-.387-.185-.922-.302-1.59l-.687-4.722-.614-4.833-.243-1.643c-.043-.403-.117-.631-.117-.631a20.94 20.94 0 0 0-.317 2.326 26.96 26.96 0 0 0 .132 5.183 18.15 18.15 0 0 0 1.243 4.833 5.47 5.47 0 0 0 1.042 1.696zm19.588-10.758a5.45 5.45 0 0 0 .148.382c.1.238.195.578.312.986a21.69 21.69 0 0 1 .529 3.047l.275 3.111c0 .429.074.795.084 1.06s.043.403.043.403a9.23 9.23 0 0 0 .375-1.426c.183-1.068.213-2.156.09-3.233a8.7 8.7 0 0 0-.947-3.148 6.01 6.01 0 0 0-.629-.901l-.28-.281zm-13.864-6.312c2.752 4.154 3.932 9.158 3.327 14.107-1.571-8.029-3.327-14.107-3.327-14.107zm5.728 4.43s-1.872-4.881-4.231-6.126c2.565.297 4.379.615 4.231 6.126zm1.926 11.267s.629-4.573-.434-8.044c1.878 4.006.883 7.26.434 8.044zm-30.69-15.697s8.463-.419 14.128-3.339c-6.575.811-14.128 3.339-14.128 3.339zm-5.454.71s9.521-2.74 14.615-5.178a80.75 80.75 0 0 0-14.615 5.178zm19.582-6.466c3.181-.501 6.219-1.68 8.908-3.455l-8.908 3.455z"/></g><g class="E"><path d="M135.956 50.112h1.418l.317.965 12.542-7.414 1.333 1.187-13.721 7.811-.524 1.675h-1.365v-4.224zm-19.762 4.324l-1.634-1.94h-1.841l-.925 1.94v-2.819l.439-.805h2.316l1.915 1.812-.27 1.812z"/><path d="M126.234 63.69c5.739 0 10.41-5.013 10.41-11.176s-4.671-11.176-10.41-11.176-10.405 5.013-10.405 11.176 4.666 11.176 10.405 11.176zm0-21.245c5.099 0 9.241 4.515 9.241 10.069s-4.142 10.069-9.241 10.069-9.241-4.515-9.241-10.069 4.147-10.074 9.241-10.074v.005z"/></g><path d="M126.234 62.576c-5.574 0-10.092-4.62-10.092-10.318s4.518-10.318 10.092-10.318 10.092 4.62 10.092 10.318-4.518 10.318-10.092 10.318z" fill="#d7d6d4" style="mix-blend-mode:multiply"/><path d="M101.558 63.69c5.739 0 10.405-5.013 10.405-11.176s-4.666-11.176-10.405-11.176-10.41 5.013-10.41 11.176 4.671 11.176 10.41 11.176zm0-21.245c5.094 0 9.241 4.515 9.241 10.069s-4.147 10.069-9.241 10.069-9.241-4.515-9.241-10.069 4.142-10.074 9.241-10.074v.005z" class="E"/><path d="M101.241 62.825c-5.574 0-10.093-4.619-10.093-10.318s4.519-10.318 10.093-10.318 10.092 4.619 10.092 10.318-4.518 10.318-10.092 10.318z" fill="#d7d6d4" style="mix-blend-mode:multiply"/><path d="M147.064 47.108c1.259-2.936 2.989-4.844 4.914-4.77s2.687 2.12 2.613 4.107 0 3.551.095 5.437c.191 2.081-.372 4.162-1.586 5.861-1.508 2.3-1.645 3.635-3.365 4.716s-4.231-.975-4.231-.975c-.534-4.34.677-12.305 1.56-14.377z" class="H"/><path style="mix-blend-mode:darken" d="M153.724 48.231c-.429-1.993-.598-2.931-1.132-3.238s-1.344.133-2.142 1.712-2.037 4.695-2.053 5.517.365 1.139 1.058 1.749 1.333 1.224.64 2.835-.968 2.485-2.163 3c1.312.487 2.369-.482 3.422-2.491s3.232-5.045 2.37-9.083z" fill="url(#d)"/><path d="M153.036 45.851c.185-.472-.349-.996-.931-.943-.273.025-.537.109-.774.248a1.88 1.88 0 0 0-.596.553c-.528.803-1.008 1.637-1.439 2.496-.502.833-.753 1.794-.724 2.766a2.35 2.35 0 0 0 1.777 2.146 2.33 2.33 0 0 1-1.322-2.173 5.55 5.55 0 0 1 .777-2.549l1.264-2.485a1.58 1.58 0 0 1 .447-.498c.183-.132.391-.224.611-.27.424-.101.974.228.91.71zm-4.427 6.71c.074.779.952 1.203 1.354 1.722a1.89 1.89 0 0 1 .339.909c.032.327-.023.657-.159.957a17.91 17.91 0 0 1-.783 2.003c-.288.683-.779 1.261-1.407 1.653a3.11 3.11 0 0 0 1.841-1.463 8.6 8.6 0 0 0 .925-2.067 2.17 2.17 0 0 0 .101-1.182 2.18 2.18 0 0 0-.534-1.059c-.577-.562-1.402-.763-1.677-1.473zm1.761-1.903c.499.232.937.576 1.28 1.007.322.391.527.865.593 1.367.058.499-.02 1.005-.228 1.463a3.62 3.62 0 0 1-.947 1.304c.548-.238 1.005-.645 1.307-1.16a2.65 2.65 0 0 0 .338-1.669 2.73 2.73 0 0 0-.788-1.51 2.88 2.88 0 0 0-1.555-.8zm1.635-3.556a9.06 9.06 0 0 1 1.058 2.008c.272.692.45 1.417.529 2.157s.062 1.479-.053 2.21c-.114.753-.324 1.489-.625 2.189a7.09 7.09 0 0 0 .614-1.017 6.98 6.98 0 0 0 .402-1.113c.388-1.529.213-3.147-.492-4.557a6.22 6.22 0 0 0-1.433-1.876z" class="J"/><path d="M147.281 60.705l.719-.419c.131-.047.272-.056.407-.027a.74.74 0 0 1 .36.191c.64.758 1.487 3.132-.608 3.386-1.989.244-1.587-1.558-1.587-1.558s.82.276 1.164-.307-.365-.816-.455-1.267z" class="E"/><defs><linearGradient id="A" x1="146.022" y1="83.334" x2="134.919" y2="83.334" xlink:href="#v"><stop stop-color="#e08564"/><stop offset="1" stop-color="#e08564" stop-opacity="0"/></linearGradient><linearGradient id="B" x1="30610.1" y1="6313.46" x2="30026.1" y2="6160.78" xlink:href="#v"><stop stop-color="#e08564"/><stop offset="1" stop-color="#e08564" stop-opacity="0"/></linearGradient><radialGradient id="C" cx="0" cy="0" r="1" gradientTransform="translate(84.8489 109.371) scale(8.88312 7.08891)" xlink:href="#v"><stop offset=".4" stop-color="#dbebf6"/><stop offset="1" stop-color="#b3c6d2"/></radialGradient><linearGradient id="D" x1="100.32" y1="112.571" x2="92.984" y2="125.654" xlink:href="#v"><stop stop-color="#a6a5b1"/><stop offset="1" stop-color="#a6a5b1" stop-opacity="0"/></linearGradient><linearGradient id="E" x1="-4769.64" y1="4174.24" x2="-4774.43" y2="4174.24" xlink:href="#v"><stop stop-color="#a6a5b1"/><stop offset="1" stop-color="#a6a5b1" stop-opacity="0"/></linearGradient><linearGradient id="F" x1="-10437.2" y1="4233.26" x2="-10578.1" y2="4518.69" xlink:href="#v"><stop stop-color="#a6a5b1"/><stop offset="1" stop-color="#a6a5b1" stop-opacity="0"/></linearGradient><radialGradient id="G" cx="0" cy="0" r="1" gradientTransform="translate(78.5325 111.998) rotate(61.3391) scale(1.14653 1.31633)" xlink:href="#v"><stop offset=".41" stop-color="#2b2f37"/><stop offset="1" stop-color="#2b2c34"/></radialGradient><radialGradient id="H" cx="0" cy="0" r="1" gradientTransform="translate(-2346.48 -1981.74) rotate(180) scale(2.18764 1.74859)" xlink:href="#v"><stop offset=".41" stop-color="#2b2f37"/><stop offset="1" stop-color="#2b2c34"/></radialGradient><radialGradient id="I" cx="0" cy="0" r="1" gradientTransform="translate(-2344.07 -1982.61) rotate(180) scale(2.18766 1.74858)" xlink:href="#v"><stop offset=".41" stop-color="#2b2f37"/><stop offset="1" stop-color="#2b2c34"/></radialGradient><radialGradient id="J" cx="0" cy="0" r="1" gradientTransform="translate(177.279 264.331) scale(2.07721 1.65765)" xlink:href="#v"><stop offset=".45" stop-color="#44352a"/><stop offset="1" stop-color="#392f28"/></radialGradient><radialGradient id="K" cx="0" cy="0" r="1" gradientTransform="translate(160.557 266.33) scale(5.38852 4.30018)" xlink:href="#v"><stop stop-color="#959a9e"/><stop offset="1" stop-color="#959a9e" stop-opacity="0"/></radialGradient><linearGradient id="L" x1="-76184.7" y1="6040.53" x2="-76195" y2="6256.36" xlink:href="#v"><stop stop-color="#a6a5b1"/><stop offset="1" stop-color="#a6a5b1" stop-opacity="0"/></linearGradient><radialGradient id="M" cx="0" cy="0" r="1" gradientTransform="translate(40946.7 1706.1) scale(94.5237 12.7144)" xlink:href="#v"><stop stop-color="#959a9e"/><stop offset="1" stop-color="#959a9e" stop-opacity="0"/></radialGradient><linearGradient id="N" x1="-120601" y1="3350.98" x2="-120600" y2="3258.39" xlink:href="#v"><stop stop-color="#a6a5b1"/><stop offset="1" stop-color="#a6a5b1" stop-opacity="0"/></linearGradient><linearGradient id="O" x1="-72632.2" y1="48814.6" x2="-71430" y2="48605.7" xlink:href="#v"><stop stop-color="#a6a5b1"/><stop offset="1" stop-color="#a6a5b1" stop-opacity="0"/></linearGradient><linearGradient id="P" x1="-82426.8" y1="53535" x2="-81449.1" y2="53455.4" xlink:href="#v"><stop stop-color="#a6a5b1"/><stop offset="1" stop-color="#a6a5b1" stop-opacity="0"/></linearGradient><radialGradient id="Q" cx="0" cy="0" r="1" gradientTransform="translate(-54580.6 13252.1) rotate(180) scale(368.337 516.909)" xlink:href="#v"><stop offset=".4" stop-color="#dbebf6"/><stop offset="1" stop-color="#b3c6d2"/></radialGradient><linearGradient id="R" x1="-57101.6" y1="7019.6" x2="-57180.9" y2="7612.34" xlink:href="#v"><stop stop-color="#a6a5b1"/><stop offset="1" stop-color="#a6a5b1" stop-opacity="0"/></linearGradient><linearGradient id="S" x1="26096.7" y1="7049.43" x2="26236.7" y2="7049.43" xlink:href="#v"><stop stop-color="#e08564"/><stop offset="1" stop-color="#e08564" stop-opacity="0"/></linearGradient><linearGradient id="T" x1="38962.5" y1="4380.74" x2="38909.2" y2="4758.93" xlink:href="#v"><stop stop-color="#e08564"/><stop offset="1" stop-color="#e08564" stop-opacity="0"/></linearGradient><radialGradient id="U" cx="0" cy="0" r="1" gradientTransform="translate(36319.5 7437.44) rotate(-169.361) scale(158.664 65.689)" xlink:href="#v"><stop offset=".4" stop-color="#dbebf6"/><stop offset="1" stop-color="#b3c6d2"/></radialGradient><linearGradient id="V" x1="-32445.7" y1="2657.88" x2="-32482.1" y2="2810.85" xlink:href="#v"><stop stop-color="#a6a5b1"/><stop offset="1" stop-color="#a6a5b1" stop-opacity="0"/></linearGradient><linearGradient id="W" x1="-17178.8" y1="7165.53" x2="-17003.4" y2="7165.32" xlink:href="#v"><stop stop-color="#a6a5b1"/><stop offset="1" stop-color="#a6a5b1" stop-opacity="0"/></linearGradient><radialGradient id="X" cx="0" cy="0" r="1" gradientTransform="translate(-56918.7 7191.75) rotate(180) scale(357.923 270.267)" xlink:href="#v"><stop offset=".4" stop-color="#dbebf6"/><stop offset="1" stop-color="#b3c6d2"/></radialGradient><linearGradient id="Y" x1="-24894.6" y1="5172.44" x2="-24691.6" y2="5292.06" xlink:href="#v"><stop stop-color="#a6a5b1"/><stop offset="1" stop-color="#a6a5b1" stop-opacity="0"/></linearGradient><radialGradient id="Z" cx="0" cy="0" r="1" gradientTransform="translate(137.854 104.183) scale(23.3136 18.6047)" xlink:href="#v"><stop offset=".41" stop-color="#333741"/><stop offset="1" stop-color="#2b2c34"/></radialGradient><linearGradient id="a" x1="-29661.5" y1="1189" x2="-29825.9" y2="1189" xlink:href="#v"><stop stop-color="#a6a5b1"/><stop offset="1" stop-color="#a6a5b1" stop-opacity="0"/></linearGradient><linearGradient id="b" x1="-27137" y1="2123.73" x2="-27274.9" y2="2123.73" xlink:href="#v"><stop stop-color="#a6a5b1"/><stop offset="1" stop-color="#a6a5b1" stop-opacity="0"/></linearGradient><linearGradient id="c" x1="-28079.9" y1="1355.69" x2="-28227.3" y2="1355.69" xlink:href="#v"><stop stop-color="#a6a5b1"/><stop offset="1" stop-color="#a6a5b1" stop-opacity="0"/></linearGradient><linearGradient id="d" x1="-2192.32" y1="6216.7" x2="-2062.85" y2="6227.62" xlink:href="#v"><stop stop-color="#e08564"/><stop offset="1" stop-color="#e08564" stop-opacity="0"/></linearGradient><path id="e" d="M100.638 126.55l-.423-3.476-.297-3.471-.111-1.972.122.271a5.19 5.19 0 0 1 .185-.7l.222 2.38.217 3.487.085 3.481z"/><path id="f" d="M95.406 121.114c-.153.386-.173.813-.058 1.213.091.222.249.41.452.537s.441.188.68.173a1.31 1.31 0 0 1-.767-.115 1.32 1.32 0 0 1-.571-.526 1.95 1.95 0 0 1-.09-1.335l.635-2.539.735-2.506.487-1.453c0 .091.058.175.085.276l-.254 1.224-.614 2.539c-.196.837-.476 1.685-.719 2.512z"/><path id="g" d="M102.632 117.044l.725 2.019.634 2.035.529 2.056.418 2.072-.74-2.014-.624-2.04-.529-2.056-.413-2.072z"/><path id="h" d="M118.268 116.794c-.074.093-.143.191-.206.291l-.376.075a29.82 29.82 0 0 1-3.221.413c-1.083.071-2.169.087-3.253.048-1.086-.046-2.16-.147-3.222-.302l3.232.047 3.206-.153 3.173-.324.667-.095z"/><path id="i" d="M118.987 115.353v.069c-.56.079-1.137.127-1.698.154-.747.039-1.495.039-2.242 0a22.36 22.36 0 0 1-2.233-.265c-.73-.128-1.449-.313-2.142-.499l2.206.207 2.206.154 2.205.127 1.698.053z"/><path id="j" d="M115.512 120.393l-.291.339-1.169.334-2.015.492-2.047.43 1.952-.652 1.988-.562 1.582-.381z"/><path id="k" d="M115.777 103.435l-2.423.397-2.465.212h-1.73l.17-.318 1.539-.042 2.459-.106 2.45-.143z"/><path id="l" d="M151.402 83.016a62.03 62.03 0 0 1-2.301 15.57l-5.713 1.208-.286.064-.343.069.238.212.195.175 2.92 2.591c-3.052 3.222-6.22 6.36-9.336 9.539l-9.257 9.603a211.31 211.31 0 0 1 4.819-4.685l4.798-4.69c1.618-1.553 3.173-3.142 4.76-4.716l4.703-4.77.296-.313-.333-.296-2.74-2.406 5.411-1.182.317-.069.08-.254a55.78 55.78 0 0 0 1.475-7.796 55.08 55.08 0 0 0 .297-7.854z"/><path id="m" d="M158.5 121.14l-.291.466-2.391.731c-1.661.412-3.354.678-5.062.795-1.715.12-3.439.077-5.146-.127a33.52 33.52 0 0 0 5.109-.117 31.98 31.98 0 0 0 4.962-.885l2.38-.699.439-.164z"/><path id="n" d="M156.099 124.728l-.138.196-1.058.439-2.56.96-2.597.885c-.428.111-.651.418-.344.699.367.252.815.354 1.254.286a1.9 1.9 0 0 1-1.412-.164.53.53 0 0 1-.214-.27c-.04-.111-.041-.233-.003-.345.059-.111.14-.209.238-.287s.212-.136.333-.168l2.56-.954 2.608-.869 1.333-.408z"/><path id="o" d="M153.147 132.513c0 .122-.037.249-.063.376a22.26 22.26 0 0 1-2.693 1.139l-2.158.663-2.232.487c-.756.138-1.513.233-2.269.297l-2.301.101 2.269-.265 2.227-.398 2.174-.53 2.116-.673a30.04 30.04 0 0 0 2.93-1.197z"/><path id="p" d="M125.853 128.453c-.806 0-1.46-.522-1.46-1.166s.654-1.166 1.46-1.166 1.46.522 1.46 1.166-.654 1.166-1.46 1.166z"/><path id="q" d="M133.338 83.853c-1.439 1.998-5.745 10.239-6.58 17.043s.074 16.598.761 21.155a45.51 45.51 0 0 1-5.972-20.667l3.703-1.791-3.353-2.221c2.935-4.467 7.696-12.22 11.24-14.621a2.83 2.83 0 0 1 .201 1.102z"/><path id="r" d="M170.423 128.74l-1.317.212a12.84 12.84 0 0 1-1.354.069 15.16 15.16 0 0 1-2.682-.218 14.29 14.29 0 0 1-2.544-.71c-.111-.037-.223-.085-.334-.132-.142-.149-.317-.292-.46-.419l.926.302a21.35 21.35 0 0 0 2.523.583c.856.146 1.72.247 2.587.302l2.655.011z"/><path id="s" d="M170.375 132.083c.005.089-.017.178-.062.255s-.112.14-.192.179a1.24 1.24 0 0 1-.465.138c-.307.032-.571 0-.852 0h-1.661l1.635-.196.793-.106c.265-.058.392-.175.339-.265-.037-.259-.646-.291-1.18-.339l-1.624-.106a17.62 17.62 0 0 1-3.316-.397c-.551-.131-1.084-.329-1.587-.589-.014-.048-.033-.094-.058-.137l-.074-.138a8.19 8.19 0 0 0 1.814.53c1.071.158 2.15.25 3.232.275l1.661.138.851.133c.323.069.709.286.746.625z"/><path id="t" d="M176.839 127.732a3.68 3.68 0 0 1-.148.382l-.169.382c-.281.203-.581.381-.894.529a9.08 9.08 0 0 1-1.264.53l1.058-.731.983-.768c.154-.096.297-.207.434-.324z"/><path id="u" d="M162.647 133.238c.499.488 1.051.918 1.645 1.283a14.01 14.01 0 0 0 1.905.975 14.62 14.62 0 0 0 2.062.726 11.92 11.92 0 0 0 2.238.429 10.86 10.86 0 0 1-2.349-.09 9.26 9.26 0 0 1-2.232-.657 8.02 8.02 0 0 1-1.883-1.155 7.74 7.74 0 0 1-1.386-1.511z"/><linearGradient id="v" gradientUnits="userSpaceOnUse"/></defs></svg>